<svg id="light" enable-background="new 0 0 24 24" height="512" viewBox="0 0 24 24" width="512" xmlns="http://www.w3.org/2000/svg"><path d="m18.645 16.453c-1.911 0-4.245-.325-6.389-1.516-4.612-2.563-10.494-.006-10.553.02-.156.068-.335.054-.476-.038s-.227-.25-.227-.419v-13c0-.215.138-.406.342-.475.29-.096 7.13-2.333 11.4.038 4.263 2.368 9.571.968 9.625.955.149-.04.312-.009.435.085.124.095.196.241.196.397v13c0 .226-.151.423-.368.482-.125.035-1.772.471-3.985.471zm3.853-.953h.01zm-15.036-2.714c1.702 0 3.555.318 5.28 1.277 3.611 2.006 7.977 1.307 9.256 1.04v-11.977c-1.609.32-5.972.905-9.742-1.189-3.373-1.874-8.842-.478-10.256-.067v11.898c1.039-.371 3.106-.982 5.462-.982z"/><path d="m15.5 11.5h-1c-.827 0-1.5-.673-1.5-1.5v-3c0-.827.673-1.5 1.5-1.5h1c.827 0 1.5.673 1.5 1.5v3c0 .827-.673 1.5-1.5 1.5zm-1-5c-.275 0-.5.224-.5.5v3c0 .276.225.5.5.5h1c.275 0 .5-.224.5-.5v-3c0-.276-.225-.5-.5-.5z"/><path d="m10.5 10.5h-2c-.827 0-1.5-.673-1.5-1.5v-3c0-.827.673-1.5 1.5-1.5h2c.276 0 .5.224.5.5s-.224.5-.5.5h-2c-.275 0-.5.224-.5.5v3c0 .276.225.5.5.5h1.5v-1h-.5c-.276 0-.5-.224-.5-.5s.224-.5.5-.5h1c.276 0 .5.224.5.5v2c0 .276-.224.5-.5.5z"/><path d="m1.5 24c-.276 0-.5-.224-.5-.5v-23c0-.276.224-.5.5-.5s.5.224.5.5v23c0 .276-.224.5-.5.5z"/></svg>