<svg xmlns="http://www.w3.org/2000/svg" width="288.362" height="353.251" viewBox="0 0 288.362 353.251">
  <g id="penguin" transform="translate(0 0.029)">
    <g id="Group_1" data-name="Group 1" transform="translate(28.248 314.124)" opacity="0.3">
      <ellipse id="Ellipse_3" data-name="Ellipse 3" cx="116.499" cy="19.549" rx="116.499" ry="19.549" fill="#371a45"/>
    </g>
    <path id="Path_8" data-name="Path 8" d="M1122.955,925.534c-.062-.239-.13-.466-.209-.693a10.434,10.434,0,0,0-3.64-5.166c-7.967-6.153-25.929,1.943-55.743,10.271a.065.065,0,0,1-.017.006c-1.055-48.665-9.953-84.331-38.021-100.675l-.006,0-.006,0h0l-.006-.006c-11.362-6.606-25.861-10.05-44.258-9.9-63.857-.5-80.826,42.218-82.3,110.591-29.82-8.335-47.8-16.43-55.761-10.277-12.011,9.278.987,36.794,42.69,66.443l1.128-4.817.018.018c-14.493,59.027-2.47,98.53,31.671,119.734a106.166,106.166,0,0,0,23.827,10.767,127.672,127.672,0,0,0,77.461,0c52.513-16.749,73.466-60.357,54.86-133.039l.055-.031,1.728,7.366c30.788-21.884,45.931-42.61,46.918-55.694v-.012A15.159,15.159,0,0,0,1122.955,925.534Zm-59.6,4.872v-.055l.012.061Z" transform="translate(-836.865 -794.628)" fill="#6a5b75" stroke="#371a45" stroke-miterlimit="10" stroke-width="0"/>
    <g id="Group_2" data-name="Group 2" transform="translate(43.915 123.054)" opacity="0.55">
      <path id="Path_9" data-name="Path 9" d="M1420.3,1623.529c-7.6-5.883-28.3,2.372-55.76,10.277.066,1.979,1.006,3.386,1.049,5.415,28.864-8.059,49.71-16.44,58.045-11.359A10.42,10.42,0,0,0,1420.3,1623.529Zm-40.281,63.961-.055.031c.055.215.11.429.159.637a.233.233,0,0,0,.044-.031Zm-189,7.336c.766-3.414,1.452-6.839,2-10.289a3.165,3.165,0,0,0-3.279-3.652l-.2.012s-2.868,9.916-3.033,10.706c-9.787,44.908-3.547,77.97,16.626,99.774C1186.068,1769.345,1181.453,1737.325,1191.026,1694.826Z" transform="translate(-1181.978 -1621.536)" fill="#fff"/>
    </g>
    <g id="Group_3" data-name="Group 3" transform="translate(1.834 24.736)" opacity="0.55">
      <path id="Path_10" data-name="Path 10" d="M1042.565,844.615c-12.587-13.372-30.991-20.579-57.44-20.37-62.865-.49-80.288,40.9-82.222,107.427a32.52,32.52,0,0,1-.844,6.433L897.6,957.167l.993-23.533c-27.3-7.875-43.952-14.935-51.533-9.07-7.464,5.76-5.27,18.575,7.464,34.563-16.338-18.244-19.813-33.1-11.6-39.448,7.967-6.153,25.941,1.949,55.767,10.277,1.471-68.373,18.446-111.094,82.3-110.591C1010.5,819.128,1029.99,828.124,1042.565,844.615Z" transform="translate(-838.646 -819.362)" fill="#fff"/>
    </g>
    <g id="Group_4" data-name="Group 4" transform="translate(226.485 135.723)" opacity="0.55">
      <path id="Path_11" data-name="Path 11" d="M2671.55,1724.9v.055l.012.006Z" transform="translate(-2671.55 -1724.9)" fill="#fff"/>
      <path id="Path_12" data-name="Path 12" d="M2671.55,1724.9v.055l.012.006Z" transform="translate(-2671.55 -1724.9)" fill="none" stroke="#371a45" stroke-miterlimit="10" stroke-width="0"/>
    </g>
    <path id="Path_13" data-name="Path 13" d="M1398.729,3137.4c-.14,11.435-13.831,13.384-20.75,7.464a31.754,31.754,0,0,1-3.322,3.842,16.272,16.272,0,0,1-7.4,4.425c-6.649,1.618-13.145-3-18.225-12.569q-.46.157-.9.294c-18.875,5.889-26.6-6.533,3.616-18.857l21.859,7.164Z" transform="translate(-1269.26 -2815.04)" fill="#ffb127"/>
    <g id="Group_5" data-name="Group 5" transform="translate(62.254 306.96)" opacity="0.6">
      <path id="Path_14" data-name="Path 14" d="M1398.818,3137.4c0,.649.086.061,0,.649l-44.124-13.212c-15.707,6.41-21.161,12.839-20.125,16.712-6.312-2.611-3.432-11.1,17.282-19.549Z" transform="translate(-1331.603 -3122)" fill="#fff"/>
    </g>
    <g id="Group_6" data-name="Group 6" transform="translate(98 314.124)" opacity="0.3">
      <path id="Path_15" data-name="Path 15" d="M1654.719,3188.687c-.14,11.435-13.832,13.384-20.75,7.464a31.775,31.775,0,0,1-3.321,3.842,16.276,16.276,0,0,1-7.4,4.425,16.368,16.368,0,0,0,4.112-22.589l2.237-1.379Z" transform="translate(-1623.25 -3180.45)" fill="#371a45"/>
    </g>
    <g id="Group_7" data-name="Group 7" transform="translate(78.524 320.314)" opacity="0.6">
      <path id="Path_16" data-name="Path 16" d="M1492.16,3240.963c-.024.135-.331,1.489-.938,3.346-9.039,8.781-18.659,4.976-25.616-8.145q-.46.157-.9.294l-.355-5.375h0a3.54,3.54,0,0,1,4.186,2c1.734,3.954,5.638,10.718,12.3,11.651C1490.064,3246.018,1492.056,3241.226,1492.16,3240.963Z" transform="translate(-1464.35 -3230.956)" fill="#fff"/>
    </g>
    <path id="Path_17" data-name="Path 17" d="M2177.1,3140.563c-7.821,14.745-19,17.729-28.939,4.3-6.919,5.92-20.609,3.971-20.757-7.464l13.887-4.553,29.434-9.646,3.658-1.2C2205.07,3134.52,2196.625,3147.138,2177.1,3140.563Z" transform="translate(-1967.609 -2815.041)" fill="#ffb127"/>
    <path id="Path_18" data-name="Path 18" d="M1406.4,1362.107c-47.383,54.444-141.6,35.985-166.37,0-23.845-34.962-6.22-67.411,2.219-79.471a101.031,101.031,0,0,0,11.258-20.714c7.6-19.224,5.583-32.039,2.978-72.534-2.586-24.366,11.533-46.305,28.595-51.147,11.381-3.236,24.544,2.549,34.165,21.817a4.689,4.689,0,0,0,8.322.067c11.049-20.683,24.262-25.7,36.255-21.057,15.934,6.159,28.582,27.136,26.126,50.319-2.6,40.5-4.628,53.31,2.971,72.534a101.613,101.613,0,0,0,11.265,20.714C1412.61,1294.7,1430.236,1327.145,1406.4,1362.107Z" transform="translate(-1178.464 -1073.679)" fill="#fff"/>
    <g id="Group_8" data-name="Group 8" transform="translate(159.791 306.96)" opacity="0.3">
      <path id="Path_19" data-name="Path 19" d="M2177.1,3140.563c-7.821,14.745-19,17.729-28.939,4.3-6.919,5.92-20.609,3.971-20.757-7.464l13.887-4.553c1.042.251,2.084.509,3.132.748,5.135,1.183,8.267,6.753,13.323,8.254,4.474,1.33,9.542-1.127,11.988-5.1s2.505-9.106.98-13.519c.006-.006.006-.018.012-.024l3.659-1.2C2205.07,3134.521,2196.625,3147.139,2177.1,3140.563Z" transform="translate(-2127.4 -3122)" fill="#371a45"/>
    </g>
    <g id="Group_9" data-name="Group 9" transform="translate(149.649 109.513)" opacity="0.3">
      <path id="Path_20" data-name="Path 20" d="M2044.65,1511.05c27.577,13.545,27.169,33.372,5.72,24.589" transform="translate(-2044.65 -1511.05)" fill="#371a45"/>
    </g>
    <path id="Path_21" data-name="Path 21" d="M1400.529,808.127a120.54,120.54,0,0,0-20.959,1.226,75.593,75.593,0,0,0-19.949,5.788,56.319,56.319,0,0,0-16.86,11.791c-1.262,1.178-2.337,2.535-3.477,3.83a25.723,25.723,0,0,0-1.593,2.039l-1.56,2.081-1.412,2.183c-.461.735-.969,1.435-1.371,2.206l-1.276,2.271c-.208.381-.434.751-.629,1.14l-.571,1.174a101.866,101.866,0,0,0-7.2,19.658,162.1,162.1,0,0,0-3.834,20.748c-.208,1.753-.436,3.5-.591,5.26s-.378,3.509-.507,5.27l-.407,5.285c-.094,1.767-.228,3.531-.34,5.3-.18,3.535-.42,7.068-.534,10.612-.074,1.771-.245,3.54-.424,5.312a39.118,39.118,0,0,1-.936,5.321v.016a.629.629,0,0,1-1.226-.017,46.555,46.555,0,0,1-1.077-10.72q0-2.681.077-5.363c.054-1.788.072-3.576.17-5.365s.168-3.577.281-5.363l.43-5.359c.328-3.57.684-7.141,1.206-10.7a179.475,179.475,0,0,1,4.148-21.176,107.153,107.153,0,0,1,7.476-20.367l.6-1.226c.2-.406.44-.8.659-1.2l1.338-2.384c.424-.808.958-1.553,1.445-2.329l1.49-2.3,1.642-2.2c.555-.728,1.072-1.483,1.694-2.16,1.208-1.379,2.353-2.813,3.694-4.072a60.072,60.072,0,0,1,17.938-12.546,79.16,79.16,0,0,1,20.924-6.083,124.415,124.415,0,0,1,21.618-1.267,1.839,1.839,0,0,1-.078,3.677Z" transform="translate(-1253.727 -781.51)" fill="#371a45"/>
    <path id="Path_22" data-name="Path 22" d="M871.419,1676.964c-29.142-20.714-47.433-43-47.736-58.157-.094-4.757,1.63-8.643,4.988-11.237,6.864-5.3,18.77-1.66,38.5,4.374,5.627,1.716,12.011,3.677,18.955,5.611l-.988,3.542c-6.994-1.953-13.4-3.91-19.042-5.638-17.958-5.491-29.82-9.119-35.176-4.981-2.434,1.88-3.632,4.657-3.554,8.255.218,10.983,12.467,31.254,46.189,55.233Z" transform="translate(-823.68 -1483.978)" fill="#371a45"/>
    <path id="Path_23" data-name="Path 23" d="M1964.961,804.459a124.239,124.239,0,0,1,21.619,1.267,79.154,79.154,0,0,1,20.924,6.083,60.051,60.051,0,0,1,17.936,12.546c1.342,1.259,2.487,2.7,3.7,4.072.621.677,1.139,1.432,1.694,2.16l1.642,2.2,1.49,2.3c.49.772,1.021,1.517,1.445,2.329l1.338,2.379c.218.4.455.791.659,1.2l.6,1.226a107.071,107.071,0,0,1,7.476,20.364,179.415,179.415,0,0,1,4.151,21.176c.522,3.554.858,7.128,1.2,10.7l.429,5.359.275,5.363c.1,1.788.116,3.578.168,5.365s.079,3.576.076,5.364a48.439,48.439,0,0,1-1.069,10.72.629.629,0,0,1-1.226.012v-.011a58.471,58.471,0,0,1-1.348-10.633c-.123-3.543-.349-7.078-.537-10.612l-.347-5.3-.408-5.285c-.314-3.518-.666-7.033-1.1-10.531a161.171,161.171,0,0,0-3.832-20.748,100.992,100.992,0,0,0-7.186-19.661l-.571-1.174c-.195-.389-.42-.759-.629-1.14l-1.276-2.271c-.4-.772-.911-1.471-1.372-2.206l-1.418-2.177-1.553-2.084c-.524-.686-1.012-1.4-1.593-2.039-1.14-1.3-2.216-2.652-3.477-3.83a56.328,56.328,0,0,0-16.862-11.791,75.548,75.548,0,0,0-19.948-5.789,120.857,120.857,0,0,0-20.958-1.226h-.019a1.839,1.839,0,1,1-.078-3.677Z" transform="translate(-1823.504 -781.518)" fill="#371a45"/>
    <path id="Path_24" data-name="Path 24" d="M1361.664,2094.191a26.753,26.753,0,0,1,1.418,2.942c.428.994.8,2,1.152,3.02.693,2.036,1.141,4.135,1.641,6.219.935,4.186,1.794,8.395,2.461,12.64l.266,1.593.218,1.593.428,3.2c.151,1.065.254,2.136.349,3.209l.3,3.215c.123,1.07.157,2.149.223,3.224l.186,3.227c.077,2.155.105,4.313.122,6.469a120.917,120.917,0,0,1-2.894,25.753c-.254,1.055-.549,2.1-.823,3.151l-.418,1.574c-.14.525-.326,1.037-.49,1.555l-1,3.1-1.16,3.05-.585,1.524-.669,1.49c-.452.99-.881,1.992-1.356,2.972-1.018,1.926-1.97,3.889-3.141,5.731-1.077,1.9-2.353,3.677-3.584,5.471-.637.884-1.33,1.728-1.994,2.594l-1.009,1.288-1.08,1.226a75.36,75.36,0,0,1-9.36,9.105l-2.552,2.037c-.874.646-1.767,1.266-2.651,1.9l-1.331.944-1.375.872c-.921.579-1.83,1.172-2.758,1.734l-2.835,1.593c-.476.261-.94.544-1.424.787l-1.454.728c-.971.48-1.933.98-2.912,1.444l-2.967,1.314a128.827,128.827,0,0,1-100.855,0l-2.964-1.305c-.981-.465-1.94-.963-2.911-1.444l-1.453-.728c-.49-.245-.949-.526-1.424-.787l-2.835-1.593c-.928-.563-1.839-1.156-2.758-1.734l-1.375-.872-1.331-.944c-.884-.632-1.777-1.252-2.651-1.9l-2.547-2.043a75.284,75.284,0,0,1-9.36-9.105l-1.081-1.226-1.009-1.288c-.663-.865-1.356-1.716-1.993-2.594-1.226-1.8-2.507-3.573-3.584-5.471-1.172-1.839-2.123-3.8-3.142-5.731-.473-.981-.9-1.982-1.354-2.972l-.669-1.49-.585-1.524c-.385-1.017-.787-2.029-1.157-3.051l-1-3.1c-.159-.519-.344-1.031-.49-1.555l-.412-1.575c-.273-1.05-.57-2.1-.824-3.15a121.086,121.086,0,0,1-2.888-25.75c.023-2.156.033-4.314.107-6.469l.185-3.227c.067-1.075.107-2.154.224-3.222.368-4.29.858-8.569,1.554-12.81.669-4.246,1.528-8.457,2.47-12.639.49-2.083.989-4.173,1.673-6.21q.526-1.524,1.15-3.021a29.752,29.752,0,0,1,1.383-2.949.631.631,0,0,1,1.188.3v.017a30.354,30.354,0,0,1-.18,3.239c-.11,1.065-.245,2.12-.418,3.167-.322,2.1-.7,4.177-1.156,6.237q-1.239,6.214-2.168,12.465c-.6,4.167-1.128,8.347-1.49,12.536-.123,1.047-.158,2.1-.225,3.144l-.189,3.145c-.083,2.1-.129,4.2-.175,6.294a112.634,112.634,0,0,0,2.567,24.919c.238,1.015.516,2.02.771,3.03l.4,1.512c.134.505.311.994.464,1.492l.952,2.974c.355.981.735,1.944,1.1,2.916l.558,1.458.64,1.42c.433.945.84,1.9,1.292,2.836.973,1.838,1.875,3.708,2.993,5.458,1.023,1.809,2.239,3.491,3.407,5.206.613.841,1.266,1.642,1.9,2.466l.958,1.226,1.028,1.168a71.5,71.5,0,0,0,8.918,8.672l2.435,1.947c.837.613,1.694,1.21,2.538,1.816l1.273.9,1.32.836c.882.554,1.754,1.124,2.645,1.665l2.726,1.536c.457.251.9.523,1.369.757l1.4.7c.937.462,1.863.944,2.807,1.391l2.869,1.27,1.435.631,1.463.57,2.926,1.141,2.973,1.022c.994.334,1.978.7,2.99.98l3.014.9c1,.311,2.028.533,3.041.805,2.024.552,4.079.972,6.128,1.412,1.021.239,2.06.39,3.091.577s2.063.38,3.1.525c2.084.265,4.151.605,6.242.769,1.044.1,2.084.211,3.133.294l3.14.18,1.57.086,1.573.03,3.145.06,3.146-.06,1.573-.03,1.57-.086,3.14-.18c1.046-.083,2.084-.2,3.133-.294,2.091-.163,4.167-.5,6.242-.769,1.039-.145,2.068-.352,3.1-.525s2.07-.338,3.091-.577c2.051-.44,4.106-.858,6.128-1.412,1.012-.272,2.04-.49,3.041-.805l3.014-.9c1.011-.281,2-.644,2.989-.98l2.973-1.022,2.926-1.141,1.464-.57,1.435-.631,2.869-1.27c.943-.448,1.87-.929,2.807-1.391l1.4-.7c.467-.234.912-.506,1.369-.757l2.726-1.536c.891-.541,1.762-1.111,2.645-1.665l1.32-.836,1.273-.9c.844-.613,1.7-1.2,2.538-1.816l2.435-1.947a71.583,71.583,0,0,0,8.918-8.672l1.028-1.168.957-1.226c.631-.823,1.291-1.625,1.9-2.466,1.168-1.716,2.384-3.4,3.407-5.206,1.118-1.75,2.019-3.624,2.993-5.458.452-.934.858-1.891,1.292-2.836l.64-1.42.558-1.458c.368-.973.755-1.937,1.1-2.917l.944-2.977c.151-.5.327-.988.458-1.493l.392-1.512c.255-1.011.534-2.015.772-3.03a112.873,112.873,0,0,0,2.562-24.914c-.051-2.1-.077-4.2-.158-6.292l-.189-3.146c-.068-1.048-.107-2.1-.226-3.143-.368-4.188-.873-8.368-1.481-12.537s-1.348-8.323-2.181-12.464c-.447-2.063-.875-4.131-1.189-6.229-.173-1.047-.319-2.1-.413-3.168a26.8,26.8,0,0,1-.147-3.248v-.017a.634.634,0,0,1,1.184-.3Z" transform="translate(-1124.008 -1912.916)" fill="#371a45"/>
    <path id="Path_25" data-name="Path 25" d="M2681.6,1676.973l-2.13-3c33.721-23.973,45.971-44.246,46.189-55.233.072-3.6-1.125-6.374-3.554-8.255-5.357-4.139-17.22-.51-35.176,4.981-5.647,1.727-12.047,3.684-19.041,5.638l-.988-3.542c6.949-1.94,13.326-3.89,18.954-5.611,19.733-6.034,31.64-9.675,38.5-4.374,3.358,2.593,5.083,6.48,4.988,11.237C2729.035,1633.972,2710.743,1656.256,2681.6,1676.973Z" transform="translate(-2440.985 -1483.987)" fill="#371a45"/>
    <ellipse id="Ellipse_4" data-name="Ellipse 4" cx="18.091" cy="13.099" rx="18.091" ry="13.099" transform="translate(98.178 123.617) rotate(-85.426)" fill="#371a45"/>
    <ellipse id="Ellipse_5" data-name="Ellipse 5" cx="6.056" cy="3.945" rx="6.056" ry="3.945" transform="translate(110.759 109.988) rotate(-85.55)" fill="#fff"/>
    <ellipse id="Ellipse_6" data-name="Ellipse 6" cx="13.057" cy="18.033" rx="13.057" ry="18.033" transform="translate(163.383 89.84) rotate(-4.45)" fill="#371a45"/>
    <ellipse id="Ellipse_7" data-name="Ellipse 7" cx="3.945" cy="6.056" rx="3.945" ry="6.056" transform="translate(169.852 98.502) rotate(-4.45)" fill="#fff"/>
    <path id="Path_26" data-name="Path 26" d="M1933.228,1660.52c0,4.865-1.2,8.622-3.064,11.276-4.394,6.269-12.465,6.333-16.937.18-1.929-2.655-3.187-6.476-3.187-11.452" transform="translate(-1776.89 -1532.688)" fill="#371a45"/>
    <path id="Path_27" data-name="Path 27" d="M1914.607,1528.548l-11.172,1.814a5.312,5.312,0,0,1-.613.073,7.168,7.168,0,0,1-1.734-.073l-11.1-1.8a2.38,2.38,0,0,1-1.765-3.358c4.572-9.707,9.627-14.426,14.6-14.205,4.761.221,9.45,4.976,13.574,14.242a2.373,2.373,0,0,1-1.79,3.309Z" transform="translate(-1757.545 -1401.484)" fill="#ffb127"/>
    <g id="Group_10" data-name="Group 10" transform="translate(130.972 109.487)" opacity="0.6">
      <path id="Path_28" data-name="Path 28" d="M1911.964,1512.679a7.771,7.771,0,0,0-1.961-.349c-4.976-.221-10.032,4.5-14.6,14.205a2.389,2.389,0,0,0,.018,2.065l-1.164-.19a2.38,2.38,0,0,1-1.765-3.358c4.572-9.707,9.627-14.426,14.6-14.205A9.013,9.013,0,0,1,1911.964,1512.679Z" transform="translate(-1892.264 -1510.839)" fill="#fff"/>
    </g>
    <path id="Path_29" data-name="Path 29" d="M1952.947,1729.156c-4.394,6.269-12.465,6.333-16.937.18v-.132Q1944.3,1722.614,1952.947,1729.156Z" transform="translate(-1799.676 -1590.051)" fill="#eb5463"/>
    <path id="Path_30" data-name="Path 30" d="M1889.051,1519.135a9.266,9.266,0,0,1-1.471-.123l-11.107-1.8a4.212,4.212,0,0,1-3.13-5.953c4.773-10.13,10.127-15.266,15.916-15.266h.107c5.78.063,10.994,5.223,15.5,15.337a4.213,4.213,0,0,1-3.168,5.871l-11.173,1.815A9.276,9.276,0,0,1,1889.051,1519.135Zm.217-19.465c-4.127,0-8.6,4.667-12.6,13.156a.536.536,0,0,0,.395.756l11.106,1.8a5.516,5.516,0,0,0,1.761,0l11.173-1.815h0a.534.534,0,0,0,.4-.746c-3.755-8.44-8.081-13.115-12.177-13.155Z" transform="translate(-1744.337 -1388.323)" fill="#371a45"/>
    <path id="Path_31" data-name="Path 31" d="M1910.2,1667.5a12.014,12.014,0,0,1-9.691-5.224c-2.287-3.146-3.494-7.429-3.494-12.386a1.593,1.593,0,0,1,3.179,0c0,4.281,1,7.918,2.886,10.519a8.884,8.884,0,0,0,7.121,3.912h.067a8.928,8.928,0,0,0,7.161-4.072,17.947,17.947,0,0,0,2.78-10.359,1.593,1.593,0,0,1,3.179,0,21.048,21.048,0,0,1-3.358,12.187,12.051,12.051,0,0,1-9.734,5.424Z" transform="translate(-1765.456 -1522.056)" fill="#371a45"/>
    <g id="Group_11" data-name="Group 11" transform="translate(145.277 109.513)" opacity="0.3">
      <path id="Path_32" data-name="Path 32" d="M2020.764,1528.6l-11.172,1.814a5.339,5.339,0,0,1-.613.074V1511.05c4.761.221,9.45,4.976,13.574,14.242a2.373,2.373,0,0,1-1.79,3.309Z" transform="translate(-2008.98 -1511.05)" fill="#371a45"/>
    </g>
    <path id="Path_33" data-name="Path 33" d="M1351.3,3142.161c-.317,0-.623-.013-.917-.034-5.78-.433-11.139-4.741-15.566-12.488-9.086,2.7-16.446,1.49-18.154-3.1-2.179-5.86,5.693-13.1,21.058-19.365a1.839,1.839,0,1,1,1.389,3.405c-15.473,6.312-19.865,12.355-19,14.682.76,2.043,6.4,3.331,15,.433a1.838,1.838,0,0,1,2.206.88c3.88,7.316,8.614,11.538,13.328,11.889,4.175.316,8.495-2.391,12.509-7.817a1.838,1.838,0,0,1,2.672-.3,12.579,12.579,0,0,0,12.791,1.838,8.19,8.19,0,0,0,4.932-7.932,1.838,1.838,0,0,1,1.839-1.815h.023a1.838,1.838,0,0,1,1.817,1.86,11.972,11.972,0,0,1-7.09,11.237,16.265,16.265,0,0,1-15.155-1.249C1359.794,3140.63,1354.851,3142.161,1351.3,3142.161Z" transform="translate(-1255.923 -2801.91)" fill="#371a45"/>
    <path id="Path_34" data-name="Path 34" d="M1459.159,3221.018c.139.429.322.92.512,1.374s.4.921.613,1.374c.43.907.9,1.8,1.385,2.673a1.878,1.878,0,1,1-3.5,1.139v-.034c-.123-1.064-.212-2.132-.261-3.2-.024-.534-.039-1.07-.037-1.607s.017-1.058.07-1.644a.613.613,0,0,1,1.2-.136Z" transform="translate(-1380.138 -2901.471)" fill="#371a45"/>
    <path id="Path_35" data-name="Path 35" d="M1694.475,3268.709a20.194,20.194,0,0,1,1.716-1.422,21.676,21.676,0,0,1,1.8-1.218,11.208,11.208,0,0,1,4.108-1.6.613.613,0,0,1,.354,1.166l-.041.019a9.463,9.463,0,0,0-2.877,2.323,18.825,18.825,0,0,0-1.188,1.486,16.684,16.684,0,0,0-1.009,1.552,1.866,1.866,0,0,1-3.27-1.8,1.894,1.894,0,0,1,.35-.455Z" transform="translate(-1587.191 -2940.035)" fill="#371a45"/>
    <path id="Path_36" data-name="Path 36" d="M2148.356,3142.178c-3.554,0-8.5-1.531-13.692-7.88a16.264,16.264,0,0,1-15.156,1.249,11.972,11.972,0,0,1-7.09-11.237,1.839,1.839,0,0,1,3.677-.045,8.19,8.19,0,0,0,4.931,7.932,12.591,12.591,0,0,0,12.791-1.838,1.838,1.838,0,0,1,2.673.3c4.013,5.425,8.334,8.135,12.5,7.817,4.714-.353,9.447-4.575,13.328-11.889a1.839,1.839,0,0,1,2.206-.88c8.609,2.9,14.245,1.61,15.006-.433.865-2.329-3.529-8.37-19-14.682a1.839,1.839,0,0,1,1.389-3.405c15.366,6.268,23.239,13.509,21.058,19.365-1.707,4.591-9.07,5.8-18.154,3.1-4.422,7.747-9.782,12.056-15.566,12.488C2148.979,3142.165,2148.672,3142.178,2148.356,3142.178Z" transform="translate(-1954.463 -2801.928)" fill="#371a45"/>
    <path id="Path_37" data-name="Path 37" d="M2520.569,3221.092c.053.586.067,1.1.07,1.644s-.012,1.073-.037,1.607c-.049,1.07-.14,2.137-.261,3.2v.024a1.878,1.878,0,1,1-3.5-1.129c.49-.876.955-1.766,1.386-2.673.214-.453.422-.912.613-1.374s.368-.945.512-1.374l.02-.062a.613.613,0,0,1,1.2.136Z" transform="translate(-2309.104 -2901.471)" fill="#371a45"/>
    <path id="Path_38" data-name="Path 38" d="M2245.757,3271a16.586,16.586,0,0,0-1.01-1.552,18.361,18.361,0,0,0-1.186-1.486,9.526,9.526,0,0,0-2.878-2.323l-.039-.018a.613.613,0,0,1,.354-1.167,11.124,11.124,0,0,1,4.107,1.6,21.493,21.493,0,0,1,1.8,1.218,19.913,19.913,0,0,1,1.716,1.422l.046.043a1.866,1.866,0,1,1-2.558,2.717A1.9,1.9,0,0,1,2245.757,3271Z" transform="translate(-2066.642 -2940.027)" fill="#371a45"/>
    <path id="Path_39" data-name="Path 39" d="M1921.554,660.981c-15.321-28.395,12.134-41.9,14.643-11.368,9.179-16.006,29.481-3,5.172,11.368" transform="translate(-1782.936 -630.447)" fill="#6a5b75" stroke="#371a45" stroke-miterlimit="10" stroke-width="0"/>
    <g id="Group_12" data-name="Group 12" transform="translate(133.996 1.8)" opacity="0.55">
      <path id="Path_40" data-name="Path 40" d="M1932.6,636.862c-7.616-5.613-16.66,6.077-10.89,23.287l-.153.815C1909.12,637.9,1924.888,624.666,1932.6,636.862Z" transform="translate(-1916.938 -632.233)" fill="#fff"/>
    </g>
    <g id="Group_13" data-name="Group 13" transform="translate(153.326 12.343)" opacity="0.55">
      <path id="Path_41" data-name="Path 41" d="M2091.037,721.5c-2.917-1.336-7.377-.623-11.068,3.295a3.125,3.125,0,0,1-5.306-1.321l-.013-.053C2080.159,716.911,2089.627,716.872,2091.037,721.5Z" transform="translate(-2074.65 -718.251)" fill="#fff"/>
    </g>
    <path id="Path_42" data-name="Path 42" d="M1906.766,648.159a16.825,16.825,0,0,1-4-6.083,34.958,34.958,0,0,1-1.16-3.5c-.162-.6-.277-1.208-.407-1.815a17.441,17.441,0,0,1-.3-1.848,22.037,22.037,0,0,1,.27-7.6,14.824,14.824,0,0,1,3.618-7.089,10.384,10.384,0,0,1,3.567-2.4,8.427,8.427,0,0,1,4.434-.381,9.259,9.259,0,0,1,3.931,1.788,11.088,11.088,0,0,1,1.514,1.4c.225.245.463.5.674.756l.576.805a22.705,22.705,0,0,1,3.074,6.935l.449,1.8.322,1.805c.123.6.19,1.206.252,1.808l.2,1.809-3.432-.764a20.541,20.541,0,0,1,3.45-4.445,14.182,14.182,0,0,1,4.915-3.122l.711-.245c.238-.078.49-.123.735-.183a9.217,9.217,0,0,1,1.512-.245,11.738,11.738,0,0,1,1.557-.027,9.958,9.958,0,0,1,1.574.256,7.919,7.919,0,0,1,2.987,1.4,6.624,6.624,0,0,1,2.142,2.717,7.5,7.5,0,0,1,.5,1.672c.053.282.058.564.082.847a4.165,4.165,0,0,1,0,.838l-.071.822c-.035.268-.106.521-.162.782a8.289,8.289,0,0,1-.467,1.488,15.152,15.152,0,0,1-3.211,4.8,18.717,18.717,0,0,1-9.186,5.447.643.643,0,0,1-.629-1.048l.006-.007c2.319-2.671,4.871-4.681,6.933-7.027a15.11,15.11,0,0,0,2.438-3.655,4.478,4.478,0,0,0,.305-3.485,2.892,2.892,0,0,0-.956-1.267,3.839,3.839,0,0,0-1.594-.756,6.782,6.782,0,0,0-3.95.322,10.519,10.519,0,0,0-3.644,2.329,16.933,16.933,0,0,0-2.793,3.608,1.847,1.847,0,0,1-3.423-.727v-.037l-.187-1.667c-.058-.558-.123-1.113-.232-1.655l-.289-1.637-.4-1.593a19.117,19.117,0,0,0-2.542-5.8l-.437-.62c-.158-.191-.331-.368-.49-.545a7.5,7.5,0,0,0-1.047-.973,5.454,5.454,0,0,0-2.365-1.091,4.7,4.7,0,0,0-2.439.245,6.675,6.675,0,0,0-2.161,1.52,11.282,11.282,0,0,0-2.471,5.31,21.21,21.21,0,0,0-.2,6.312c.066,1.076.323,2.144.5,3.221.261,1.069.49,2.144.858,3.2.285,1.075.641,2.136.914,3.247.123.561.283,1.113.418,1.68a15.548,15.548,0,0,1,.313,1.771v.054a.643.643,0,0,1-1.085.528Z" transform="translate(-1768.688 -617.34)" fill="#371a45"/>
    <g id="Group_14" data-name="Group 14" transform="translate(100.623 34.653)" opacity="0.3">
      <path id="Path_43" data-name="Path 43" d="M1751.037,1075.391c-12.967-27.724-7-41.776-5.27-98.028,1.814-58.666-12.869-76.567-13.292-77.081a.008.008,0,0,1,.006,0l.006,0c28.068,16.344,36.966,52.011,38.021,100.675a.065.065,0,0,1,.017-.006c.208,23.563,4.657,31.671,4.657,31.671,6.435,9.5,21.143-2.494,21.143-2.494,24.7-14.518,32.567-31.824,33.583-34.282.086-.2.123-.3.123-.3s.031.337.087.993c.078.962.207,2.6.379,4.878v.012a28.088,28.088,0,0,1-2.317,8.757c-5.135,12.122-18.685,27.933-41.3,44.553q-1.618,1.186-3.3,2.384l-1.728-7.366-.055.031c9.511,37.162,8.684,66.725-1.416,88.982-10.148,18.4-27.307,31.248-50.773,38.731a127.672,127.672,0,0,1-77.461,0q-3.861-1.232-7.495-2.666c91.452,8.629,124.159-64.819,108.864-94.412-.314-.607-.62-1.207-.914-1.8" transform="translate(-1644.65 -900.279)" fill="#371a45"/>
    </g>
  </g>
</svg>
