<svg xmlns="http://www.w3.org/2000/svg" width="450.129" height="439.741" viewBox="0 0 450.129 439.741">
	<g id="Group_23" data-name="Group 23" transform="translate(-771.884 -93.174)">
		<circle id="Ellipse_8" data-name="Ellipse 8" cx="76.204" cy="76.204" r="76.204" transform="translate(1038.665 356.854) rotate(-76.718)" fill="#fff" />
		<circle id="Ellipse_9" data-name="Ellipse 9" cx="76.205" cy="76.205" r="76.205" transform="translate(771.884 300.196) rotate(-45)" fill="#fff" />
		<path id="Path_47" data-name="Path 47" d="M924.468,238.667a76.19,76.19,0,0,1-108.8,103.087,76.2,76.2,0,1,0,108.8-103.087Z" fill="#efefef" />
		<path id="Path_48" data-name="Path 48" d="M1175.154,238.667a76.19,76.19,0,0,1-108.8,103.087,76.2,76.2,0,1,0,108.8-103.087Z" fill="#efefef" />
		<g id="Group_18" data-name="Group 18">
			<path id="Path_49" data-name="Path 49" d="M879.653,379.9a79.7,79.7,0,1,1,79.7-79.7A79.8,79.8,0,0,1,879.653,379.9Zm0-152.409a72.7,72.7,0,1,0,72.7,72.7A72.787,72.787,0,0,0,879.653,227.492Z" fill="#231f20" />
		</g>
		<circle id="Ellipse_10" data-name="Ellipse 10" cx="36.92" cy="36.92" r="36.92" transform="translate(819.215 233.32)" fill="#231f20" />
		<path id="Path_50" data-name="Path 50" d="M862.179,263.539a15.11,15.11,0,1,1-15.11-15.109A15.11,15.11,0,0,1,862.179,263.539Z" fill="#fff" />
		<g id="Group_19" data-name="Group 19">
			<path id="Path_51" data-name="Path 51" d="M1130.339,379.9a79.7,79.7,0,1,1,79.7-79.7A79.8,79.8,0,0,1,1130.339,379.9Zm0-152.409a72.7,72.7,0,1,0,72.7,72.7A72.786,72.786,0,0,0,1130.339,227.492Z" fill="#231f20" />
		</g>
		<circle id="Ellipse_11" data-name="Ellipse 11" cx="36.92" cy="36.92" r="36.92" transform="translate(1073.186 231.875)" fill="#231f20" />
		<circle id="Ellipse_12" data-name="Ellipse 12" cx="15.109" cy="15.109" r="15.109" transform="translate(1085.931 246.985)" fill="#fff" />
		<path id="Path_52" data-name="Path 52" d="M806.4,165.581c15.053,10.311,14.856-18.134,42.915-37.27,23.4-15.956,45.218-6.134,45.389-19.616s-26.372-22.515-61.7-1.443C806.727,122.932,788.928,153.613,806.4,165.581Z" fill="#231f20" />
		<path id="Path_53" data-name="Path 53" d="M1208.31,167.383c-15.757,9.669-14.988-18.891-43.6-39.391-23.854-17.093-46.594-8.223-46.5-21.772s27.695-21.411,63.769,1.365C1208.823,124.532,1226.6,156.159,1208.31,167.383Z" fill="#231f20" />
		<g id="Group_20" data-name="Group 20">
			<path id="Path_54" data-name="Path 54" d="M1141.641,515.941a4.992,4.992,0,0,1-3.824-1.776c-.145-.172-15.066-17.674-41.412-36.8-24.207-17.574-63.319-40.17-112.173-48.024-63.859-10.262-100.82,22.921-101.186,23.258a5,5,0,0,1-6.793-7.34c1.628-1.51,40.67-36.87,109.566-25.791,50.929,8.187,91.581,31.7,116.717,49.99,27.242,19.819,42.3,37.514,42.924,38.257a5,5,0,0,1-3.819,8.225Z" fill="#231f20" />
		</g>
		<g id="Group_21" data-name="Group 21">
			<path id="Path_55" data-name="Path 55" d="M856.945,442.143c-4.522,11.34-.368,25.244,8.754,33.1a27.911,27.911,0,0,0,9.084,5.254,2.5,2.5,0,0,0,1.329-4.822c-12.631-4.4-19.184-20.065-14.345-32.2a2.518,2.518,0,0,0-1.746-3.076,2.561,2.561,0,0,0-3.076,1.746Z" fill="#231f20" />
		</g>
		<g id="Group_22" data-name="Group 22">
			<path id="Path_56" data-name="Path 56" d="M1137.985,532.835c13.548-3.393,22.838-16.819,25-30.087a40.533,40.533,0,0,0,.1-12.487,2.354,2.354,0,0,0-2.875-1.633,2.4,2.4,0,0,0-1.632,2.875c1.741,11.9-3.391,25.472-13.171,32.675a24.649,24.649,0,0,1-8.658,4.151c-2.916.73-1.68,5.238,1.242,4.506Z" fill="#231f20" />
		</g>
	</g>
</svg>
